# xmcd
#
# Track frame offsets:
#	150
#	32821
#	74720
#	107008
#	138656
#
# Disc length: 2321 seconds
#
# Revision: 1
# Processed by: cddbd v1.5.2PL0 Copyright (c) Steve Scherf et al.
# Submitted via: audiograbber 1.83.01
#
DISCID=4a090f05
DTITLE=Grateful Dead - 78-07-05A Omaha Civic Auditorium, Omaha NB
DYEAR=1900
DGENRE=
TTITLE0=Space
TTITLE1=Wharf Rat
TTITLE2=Truckin'
TTITLE3=Iko Iko
TTITLE4=Around and Around
EXTD=
EXTT0=
EXTT1=
EXTT2=
EXTT3=
EXTT4=
PLAYORDER=
